<svg width="24" height="24" viewBox="0 0 24 24" fill="none" xmlns="http://www.w3.org/2000/svg">
<path d="M0.00752105 12.0153C-0.232319 5.82848 5.29883 0.111084 11.6199 0.036906C14.8416 -0.232313 17.9759 0.993437 20.414 2.99261C19.4139 4.07 18.3963 5.13494 17.3094 6.13193C15.163 4.85431 12.5787 3.88066 10.0702 4.74538C6.02417 5.87413 3.57388 10.5546 5.07116 14.4326C6.31113 18.4828 11.3393 20.7055 15.28 19.0041C17.3205 18.2883 18.6658 16.4437 19.2561 14.4616C16.9176 14.416 14.5785 14.4445 12.2399 14.3812C12.2341 13.018 12.2282 11.66 12.2341 10.2968C16.134 10.2911 20.0397 10.2797 23.9455 10.3139C24.1853 13.654 23.6823 17.2285 21.4661 19.9093C18.4313 23.7359 12.8244 24.859 8.26321 23.3578C3.42246 21.8 -0.0978392 17.0221 0.00752105 12.0153Z" fill="white"/>
</svg>
