<svg width="19" height="18" viewBox="0 0 19 18" fill="none" xmlns="http://www.w3.org/2000/svg">
<path d="M4.43333 17.7333C4.34023 17.7333 4.2465 17.7124 4.15847 17.6706C3.93997 17.5649 3.8 17.3438 3.8 17.1V13.9333H1.9C0.852467 13.9333 0 13.0809 0 12.0333V1.9C0 0.852467 0.852467 0 1.9 0H17.1C18.1475 0 19 0.852467 19 1.9V12.0333C19 13.0809 18.1475 13.9333 17.1 13.9333H9.40563L4.82917 17.5946C4.71453 17.6865 4.57457 17.7333 4.43333 17.7333ZM1.9 1.26667C1.5504 1.26667 1.26667 1.55103 1.26667 1.9V12.0333C1.26667 12.3823 1.5504 12.6667 1.9 12.6667H4.43333C4.78357 12.6667 5.06667 12.9498 5.06667 13.3V15.7827L8.7875 12.8054C8.90023 12.7154 9.03893 12.6667 9.18333 12.6667H17.1C17.4496 12.6667 17.7333 12.3823 17.7333 12.0333V1.9C17.7333 1.55103 17.4496 1.26667 17.1 1.26667H1.9Z" fill="#41B7E9"/>
<path d="M14.5667 6.33307H4.43332C4.08309 6.33307 3.79999 6.04934 3.79999 5.69974C3.79999 5.35014 4.08309 5.06641 4.43332 5.06641H14.5667C14.9169 5.06641 15.2 5.35014 15.2 5.69974C15.2 6.04934 14.9169 6.33307 14.5667 6.33307Z" fill="#41B7E9"/>
<path d="M9.49999 8.86628H4.43332C4.08309 8.86628 3.79999 8.58254 3.79999 8.23294C3.79999 7.88334 4.08309 7.59961 4.43332 7.59961H9.49999C9.85022 7.59961 10.1333 7.88334 10.1333 8.23294C10.1333 8.58254 9.85022 8.86628 9.49999 8.86628Z" fill="#41B7E9"/>
</svg>
