<svg width="24" height="22" viewBox="0 0 24 22" fill="none" xmlns="http://www.w3.org/2000/svg">
<path d="M2.60156 1.25H21.3956C21.5651 1.25 21.731 1.29924 21.873 1.39173C22.0151 1.48423 22.1272 1.61599 22.1958 1.77102C22.2644 1.92604 22.2864 2.09764 22.2593 2.26498C22.2322 2.43231 22.1571 2.58816 22.043 2.71359L14.8511 10.6247C14.7047 10.7858 14.6236 10.9956 14.6236 11.2133V17.4067C14.6236 17.5508 14.588 17.6926 14.52 17.8196C14.4521 17.9466 14.3538 18.0549 14.2339 18.1348L10.7339 20.4681C10.6022 20.5559 10.449 20.6064 10.2908 20.614C10.1326 20.6217 9.97534 20.5862 9.83571 20.5115C9.69607 20.4368 9.57934 20.3256 9.49795 20.1897C9.41657 20.0538 9.37358 19.8984 9.37358 19.74V11.2133C9.37358 10.9956 9.29245 10.7858 9.14603 10.6247L1.95412 2.71359C1.84009 2.58816 1.76495 2.43231 1.73783 2.26498C1.71071 2.09764 1.73279 1.92604 1.80136 1.77102C1.86994 1.61599 1.98207 1.48423 2.12413 1.39173C2.26618 1.29924 2.43205 1.25 2.60156 1.25V1.25Z" stroke="#01CD7D" stroke-width="1.5" stroke-linecap="round" stroke-linejoin="round"/>
</svg>
