<?xml version="1.0" standalone="no"?>
<!DOCTYPE svg PUBLIC "-//W3C//DTD SVG 1.1//EN" "http://www.w3.org/Graphics/SVG/1.1/DTD/svg11.dtd" >
<svg xmlns="http://www.w3.org/2000/svg">
<metadata>Generated by IcoMoon</metadata>
<defs>
<font id="icons" horiz-adv-x="1024">
<font-face units-per-em="1024" ascent="960" descent="-64" />
<missing-glyph horiz-adv-x="1024" />
<glyph unicode="&#x20;" horiz-adv-x="512" d="" />
<glyph unicode="&#xe900;" glyph-name="document" d="M139.8 938v-980h510.8l233.6 231.4v748.6h-744.4zM179.4 896.2h663v-677.6h-200.2c-12.6 0-20.8-10.4-20.8-20.8v-198h-442v896.4zM663.2 28.8v150.2h150.2l-150.2-150.2zM289.8 754.6h440v-41.8h-440v41.8zM289.8 577.2h440v-41.8h-440v41.8zM289.8 400h440v-41.8h-440v41.8z" />
<glyph unicode="&#xe901;" glyph-name="alarm" d="M519.591 901.682c-261.116 0-472.811-211.661-472.811-472.794 0-261.163 211.678-472.839 472.811-472.839 261.116 0 472.841 211.659 472.841 472.839 0 261.133-211.724 472.794-472.841 472.794zM554.41 62.188v58.118c0 19.212-15.589 34.801-34.82 34.801s-34.771-15.588-34.771-34.801v-58.118c-175.429 16.513-315.386 156.485-331.897 331.915h58.131c19.229 0 34.771 15.573 34.771 34.801 0 19.214-15.558 34.788-34.771 34.788h-58.131c16.511 175.412 156.453 315.371 331.897 331.882v-58.133c0-19.212 15.558-34.803 34.771-34.803 19.229 0 34.82 15.589 34.82 34.803v58.116c175.429-16.511 315.386-156.453 331.865-331.882h-58.099c-19.229 0-34.788-15.574-34.788-34.788 0-19.229 15.559-34.801 34.788-34.801h58.099c-16.496-175.412-156.436-315.369-331.865-331.899zM695.782 481.077h-115.041c-13.349 15.606-32.355 25.903-53.968 27.826l-103.059 145.011c-16.67 23.552-49.312 28.987-72.752 12.332-23.472-16.687-29.002-49.265-12.302-72.768l102.932-144.901c-1.573-6.325-2.686-12.857-2.686-19.674 0-44.625 36.122-80.763 80.683-80.763 24.6 0 46.34 11.252 61.168 28.575h115.039c28.813 0 52.188 23.343 52.188 52.186-0.017 28.831-23.392 52.176-52.203 52.176zM259.237 905.783c-21.882 21.867-51.552 34.167-82.493 34.167s-60.626-12.285-82.493-34.152l-60.102-60.102c-45.515-45.562-45.545-119.394 0-164.956l5.339-5.339 225.088 225.027-5.339 5.356zM1013.345 837.416l-76.677 76.677c-14.176 14.191-37.201 14.191-51.361 0.015l-62.184-62.152 128.104-128.055 62.12 62.137c14.206 14.207 14.206 37.187-0.002 51.378z" />
<glyph unicode="&#xe902;" glyph-name="arrow-bottom" d="M321.28 555.947c-5.699 5.321-13.376 8.588-21.815 8.588-17.673 0-32-14.327-32-32 0-8.44 3.267-16.116 8.606-21.834l-0.017 0.019 213.333-213.333c5.792-5.795 13.794-9.38 22.635-9.38s16.843 3.585 22.634 9.38l213.334 213.334c5.552 5.747 8.972 13.584 8.972 22.22 0 17.673-14.327 32-32 32-8.646 0-16.492-3.429-22.251-9.002l0.009 0.008-190.72-190.72z" />
<glyph unicode="&#xe903;" glyph-name="arrow-left" d="M11.535 420.151c-15.381 15.381-15.381 40.318 0 55.699l250.642 250.642c15.381 15.381 40.318 15.381 55.699 0s15.38-40.318 0-55.698l-222.793-222.793 222.793-222.795c15.38-15.38 15.38-40.314 0-55.698-15.381-15.38-40.318-15.38-55.699 0l-250.642 250.643zM1024 408.615h-984.615v78.769h984.615v-78.769z" />
<glyph unicode="&#xe904;" glyph-name="arrow-right" d="M1012.464 420.151c15.38 15.381 15.38 40.318 0 55.699l-250.644 250.642c-15.38 15.381-40.314 15.381-55.698 0-15.38-15.381-15.38-40.318 0-55.698l222.795-222.793-222.795-222.795c-15.38-15.38-15.38-40.314 0-55.698 15.384-15.38 40.318-15.38 55.698 0l250.644 250.643zM0 408.615h984.615v78.769h-984.615v-78.769z" />
<glyph unicode="&#xe905;" glyph-name="bank" d="M153.603 140.801c-9.42 0-17.066-7.646-17.066-17.066s7.646-17.066 17.066-17.066h170.665c9.42 0 17.066 7.646 17.066 17.066s-7.646 17.066-17.066 17.066h-17.066v409.598h17.066c9.42 0 17.066 7.646 17.066 17.066s-7.646 17.066-17.066 17.066h-170.665c-9.42 0-17.066-7.646-17.066-17.066s7.646-17.066 17.066-17.066h17.066v-409.598h-17.066zM204.803 550.398h68.266v-409.598h-68.266v409.598zM17.070 618.666h989.86c7.628 0 14.318 5.052 16.418 12.39 2.082 7.322-0.938 15.156-7.424 19.182l-494.929 307.198c-5.512 3.414-12.476 3.414-17.988 0l-494.931-307.198c-6.486-4.028-9.506-11.862-7.424-19.182 2.098-7.338 8.79-12.39 16.418-12.39zM512.001 922.842l435.077-270.044h-870.157l435.079 270.044zM68.27 55.469c0-9.42 7.646-17.066 17.066-17.066h853.329c9.42 0 17.066 7.646 17.066 17.066s-7.646 17.066-17.066 17.066h-853.329c-9.42 0-17.066-7.646-17.066-17.066zM1006.93 4.27h-989.86c-9.42 0-17.066-7.646-17.066-17.066v-34.134c0-9.42 7.646-17.066 17.066-17.066s17.066 7.646 17.066 17.066v17.066h955.728v-17.066c0-9.42 7.646-17.066 17.066-17.066s17.066 7.646 17.066 17.066v34.134c0.002 9.42-7.644 17.066-17.066 17.066zM426.667 140.801c-9.42 0-17.066-7.646-17.066-17.066s7.646-17.066 17.066-17.066h170.665c9.42 0 17.066 7.646 17.066 17.066s-7.646 17.066-17.066 17.066h-17.066v409.598h17.066c9.42 0 17.066 7.646 17.066 17.066s-7.646 17.066-17.066 17.066h-170.665c-9.42 0-17.066-7.646-17.066-17.066s7.646-17.066 17.066-17.066h17.066v-409.598h-17.066zM477.867 550.398h68.266v-409.598h-68.266v409.598zM699.732 140.801c-9.42 0-17.066-7.646-17.066-17.066s7.646-17.066 17.066-17.066h170.665c9.42 0 17.066 7.646 17.066 17.066s-7.646 17.066-17.066 17.066h-17.066v409.598h17.066c9.42 0 17.066 7.646 17.066 17.066s-7.646 17.066-17.066 17.066h-170.665c-9.42 0-17.066-7.646-17.066-17.066s7.646-17.066 17.066-17.066h17.066v-409.598h-17.066zM750.932 550.398h68.266v-409.598h-68.266v409.598z" />
<glyph unicode="&#xe906;" glyph-name="barbell" d="M992 464h-48v144c-0.031 26.497-21.503 47.969-47.997 48h-80.003v48c-0.031 26.497-21.503 47.969-47.997 48h-96.003c-26.497-0.031-47.969-21.503-48-47.997v-240.003h-224v240c-0.031 26.497-21.503 47.969-47.997 48h-96.003c-26.497-0.031-47.969-21.503-48-47.997v-48.003h-80c-26.497-0.031-47.969-21.503-48-47.997v-144.003h-48c-8.837 0-16-7.163-16-16s7.163-16 16-16v0h48v-144c0.031-26.497 21.503-47.969 47.997-48h80.003v-48c0.031-26.497 21.503-47.969 47.997-48h96.003c26.497 0.031 47.969 21.503 48 47.997v240.003h224v-240c0.031-26.497 21.503-47.969 47.997-48h96.003c26.497 0.031 47.969 21.503 48 47.997v48.003h80c26.497 0.031 47.969 21.503 48 47.997v144.003h48c8.837 0 16 7.163 16 16s-7.163 16-16 16v0zM128 272c-8.832 0.010-15.99 7.168-16 15.999v320.001c0.010 8.832 7.168 15.99 15.999 16h80.001v-352zM368 192c-0.010-8.832-7.168-15.99-15.999-16h-96.001c-8.832 0.010-15.99 7.168-16 15.999v512.001c0.010 8.832 7.168 15.99 15.999 16h96.001c8.832-0.010 15.99-7.168 16-15.999v-0.001zM784 192c-0.010-8.832-7.168-15.99-15.999-16h-96.001c-8.832 0.010-15.99 7.168-16 15.999v512.001c0.010 8.832 7.168 15.99 15.999 16h96.001c8.832-0.010 15.99-7.168 16-15.999v-0.001zM912 288c-0.010-8.832-7.168-15.99-15.999-16h-80.001v352h80c8.832-0.010 15.99-7.168 16-15.999v-0.001z" />
<glyph unicode="&#xe907;" glyph-name="box" d="M302.638 938.134l-302.638-237.676v-742.593h742.522v1.783l280.935 249.815v727.726l0.543 0.945h-721.362zM312.548 910.193h289.859l-230.346-209.735h-318.582l259.069 209.735zM714.616-14.214h-686.661v686.681h686.661v-686.681zM723.144 700.459h-309.546l230.367 209.735h308.149l-228.97-209.735zM995.516 222.040l-252.979-224.932v683.212l252.979 231.728v-690.008zM251.689 574.581h249.327v-27.941h-249.327v27.941z" />
<glyph unicode="&#xe908;" glyph-name="city" d="M324.428 960v-304.192h-267.672v-719.808h910.488v1024h-642.816zM452.18-3.166h-334.59v598.14h334.588v-598.14zM906.41-3.166h-393.396v658.974h-127.752v243.358h521.148v-902.332zM422.616 858.61h67.932v-60.834h-67.932v60.834zM548.786 858.61h67.932v-60.834h-67.932v60.834zM674.956 858.61h67.932v-60.834h-67.932v60.834zM801.128 858.61h67.932v-60.834h-67.932v60.834zM422.616 757.198h67.932v-60.834h-67.932v60.834zM548.786 757.198h67.932v-60.834h-67.932v60.834zM674.956 757.198h67.932v-60.834h-67.932v60.834zM801.128 757.198h67.932v-60.834h-67.932v60.834zM548.786 655.808h67.932v-60.834h-67.932v60.834zM674.956 655.808h67.932v-60.834h-67.932v60.834zM801.128 655.808h67.932v-60.834h-67.932v60.834zM548.786 554.418h67.932v-60.834h-67.932v60.834zM674.956 554.418h67.932v-60.834h-67.932v60.834zM801.128 554.418h67.932v-60.834h-67.932v60.834zM548.786 453.006h67.932v-60.834h-67.932v60.834zM674.956 453.006h67.932v-60.834h-67.932v60.834zM801.128 453.006h67.932v-60.834h-67.932v60.834zM548.786 351.616h67.932v-60.834h-67.932v60.834zM674.956 351.616h67.932v-60.834h-67.932v60.834zM801.128 351.616h67.932v-60.834h-67.932v60.834zM548.786 250.226h67.932v-60.834h-67.932v60.834zM674.956 250.226h67.932v-60.834h-67.932v60.834zM801.128 250.226h67.932v-60.834h-67.932v60.834zM548.786 148.834h67.932v-60.834h-67.932v60.834zM674.956 148.834h67.932v-60.834h-67.932v60.834zM801.128 148.834h67.932v-60.834h-67.932v60.834zM157.418 554.418h108.488v-60.834h-108.488v60.834zM303.868 554.418h108.488v-60.834h-108.488v60.834zM157.418 453.006h108.488v-60.834h-108.488v60.834zM303.868 453.006h108.488v-60.834h-108.488v60.834zM157.418 351.616h108.488v-60.834h-108.488v60.834zM303.868 351.616h108.488v-60.834h-108.488v60.834zM157.418 250.226h108.488v-60.834h-108.488v60.834zM303.868 250.226h108.488v-60.834h-108.488v60.834zM157.418 148.834h108.488v-60.834h-108.488v60.834zM303.868 148.834h108.488v-60.834h-108.488v60.834z" />
<glyph unicode="&#xe909;" glyph-name="clock" d="M512 959.997c-282.319 0-512-229.681-512-512s229.681-511.997 512-511.997 512 229.681 512 511.997-229.685 512-512 512zM512-12.965c-254.18 0-460.968 206.785-460.968 460.961s206.788 460.968 460.968 460.968 460.968-206.788 460.968-460.965-206.792-460.965-460.968-460.965zM486.484 473.513h-203.604v-51.032h254.636v388.224h-51.032z" />
<glyph unicode="&#xe90a;" glyph-name="dollar" d="M512 960c-282.76 0-512-229.222-512-512 0-282.76 229.24-512 512-512s512 229.24 512 512c0 282.778-229.24 512-512 512zM512-12.8c-254.088 0-460.8 206.712-460.8 460.8s206.712 460.8 460.8 460.8 460.8-206.712 460.8-460.8-206.712-460.8-460.8-460.8zM660.77 422.724c-25.566 21.3-68.522 40.244-128.768 56.798v225.604c28.246-1.604 51.2-8.806 68.796-21.606 22.92-17.1 35.208-42.394 36.796-75.998 0-9.096 2.646-16.298 8.004-21.606 4.796-4.796 10.394-7.202 16.794-7.202 6.928 0 12.526 2.406 16.794 7.202 5.324 5.308 8.004 12.492 8.004 21.606 0 41.608-14.148 75.196-42.394 100.796-28.28 25.054-65.878 38.656-112.794 40.806v43.196c0 13.296-6.946 20.002-20.804 20.002-13.346 0-20.002-6.708-20.002-20.002v-43.196c-46.95-1.604-85.35-15.206-115.2-40.806-32.546-28.296-48.794-65.894-48.794-112.794 0-40.004 14.404-72.294 43.196-96.802 26.13-22.408 66.406-40.004 120.798-52.804v-241.596c-38.4 3.704-68.266 14.404-89.6 32-27.75 23.45-41.352 58.094-40.806 104.004 0 9.046-2.406 16.008-7.202 20.804-4.266 4.796-9.608 7.202-16.008 7.202s-11.742-2.406-16.008-7.202c-4.796-4.796-7.202-11.742-7.202-20.804 0-64.546 18.928-111.752 56.798-141.602 27.734-20.804 67.72-33.604 119.996-38.4v-58.402c0-13.858 6.656-20.804 20.002-20.804 13.858 0 20.804 6.946 20.804 20.804v57.6c48.52 3.704 89.054 19.456 121.6 47.206 34.646 29.85 52.002 67.994 52.002 114.398-0.002 43.196-14.952 77.056-44.802 101.598zM491.196 490.718c-41.080 10.65-70.4 25.054-87.996 43.196-17.066 17.596-25.6 40.004-25.6 67.208 0 33.058 12.8 59.204 38.4 78.404 20.804 15.446 45.858 24.252 75.196 26.402v-215.21zM611.994 233.932c-22.408-16.554-49.066-26.402-80.008-29.594v228.78c46.404-11.742 77.858-25.104 94.396-40.004 18.654-16.554 28.006-42.154 28.006-76.8 0.016-34.696-14.132-62.14-42.394-82.382z" />
<glyph unicode="&#xe90b;" glyph-name="email" d="M935.328 533.056l-371.072 371.040c-13.952 13.952-32.512 21.664-52.256 21.664s-38.304-7.68-52.256-21.664l-374.24-374.176v-559.712h852.992v559.648l-3.168 3.168zM140.16 536.32l343.712 343.68c15.040 15.040 41.248 15.040 56.288 0l359.872-359.904-245.248-245.248-90.528 90.528c-13.952 13.952-32.512 21.664-52.256 21.664s-38.304-7.712-52.256-21.664l-91.872-91.84-245.248 245.248 17.536 17.536zM343.744 249.44l-2.528-2.56-0.032 0.032-221.536-221.536v448.16l224.128-224.096zM146.848 4.352l18.336 18.336h0.064l318.624 318.592c15.040 15.040 41.248 15.040 56.288 0l336.992-336.928h-730.304zM904.384 461.76v-436.416l-225.472 225.376 225.472 225.472v-14.432z" />
<glyph unicode="&#xe90c;" glyph-name="facebook" d="M591.648-63.996v467.095h157.515l23.583 182.036h-181.098v116.224c0 52.702 14.705 88.622 90.639 88.622l96.844 0.045v162.809c-16.758 2.21-74.24 7.165-141.117 7.165-139.627 0-235.219-84.829-235.219-240.621v-134.248h-157.924v-182.035h157.919v-467.095l188.859 0.004z" />
<glyph unicode="&#xe90d;" glyph-name="google" d="M0.321 447.347c-10.233 263.971 225.763 507.913 495.462 511.078 137.459 11.487 271.189-40.812 375.215-126.11-42.671-45.969-86.089-91.406-132.463-133.944-91.58 54.512-201.843 96.054-308.873 59.159-172.631-48.16-277.176-247.86-213.292-413.321 52.905-172.809 267.441-267.644 435.577-195.051 87.061 30.541 144.461 109.244 169.647 193.813-99.776 1.946-199.578 0.73-299.358 3.43-0.247 58.163-0.499 116.105-0.247 174.268 166.396 0.243 333.039 0.73 499.686-0.73 10.231-142.511-11.23-295.023-105.788-409.404-129.485-163.268-368.713-211.187-563.323-147.136-206.539 66.466-356.738 270.323-352.243 483.947z" />
<glyph unicode="&#xe90e;" glyph-name="index" d="M652.528 51.472c0-9.025-7.316-16.34-16.34-16.34s-16.34 7.316-16.34 16.34c0 9.025 7.316 16.34 16.34 16.34s16.34-7.316 16.34-16.34zM717.889 116.834c0-9.025-7.316-16.34-16.34-16.34s-16.34 7.316-16.34 16.34c0 9.025 7.316 16.34 16.34 16.34s16.34-7.316 16.34-16.34zM996.766 960h-130.723c-9.026 0-16.34-7.314-16.34-16.34s7.314-16.34 16.34-16.34h114.383v-958.638h-163.404v974.979c0 9.026-7.314 16.34-16.34 16.34h-686.298c-9.026 0-16.34-7.314-16.34-16.34v-54.468h-38.128c-27.029 0-49.021-21.992-49.021-49.021s21.992-49.021 49.021-49.021h38.128v-163.404h-38.128c-27.029 0-49.021-21.992-49.021-49.021s21.992-49.021 49.021-49.021h38.128v-163.404h-38.128c-27.029 0-49.021-21.992-49.021-49.021s21.992-49.021 49.021-49.021h38.128v-163.404h-38.128c-27.029 0-49.021-21.992-49.021-49.021s21.992-49.021 49.021-49.021h38.128v-54.468c0-9.026 7.314-16.34 16.34-16.34h882.383c9.026 0 16.34 7.314 16.34 16.34v991.319c0 9.026-7.314 16.34-16.34 16.34zM43.574 840.17c0 9.011 7.329 16.34 16.34 16.34h108.936c9.011 0 16.34-7.329 16.34-16.34s-7.329-16.34-16.34-16.34h-108.936c-9.011 0-16.34 7.329-16.34 16.34zM43.574 578.723c0 9.011 7.329 16.34 16.34 16.34h108.936c9.011 0 16.34-7.329 16.34-16.34s-7.329-16.34-16.34-16.34h-108.936c-9.011 0-16.34 7.329-16.34 16.34zM43.574 317.277c0 9.011 7.329 16.34 16.34 16.34h108.936c9.011 0 16.34-7.329 16.34-16.34s-7.329-16.34-16.34-16.34h-108.936c-9.011 0-16.34 7.329-16.34 16.34zM43.574 55.83c0 9.011 7.329 16.34 16.34 16.34h108.936c9.011 0 16.34-7.329 16.34-16.34s-7.329-16.34-16.34-16.34h-108.936c-9.011 0-16.34 7.329-16.34 16.34zM130.723 6.809h38.128c27.029 0 49.021 21.992 49.021 49.021s-21.992 49.021-49.021 49.021h-38.128v163.404h38.128c27.029 0 49.021 21.992 49.021 49.021s-21.992 49.021-49.021 49.021h-38.128v163.404h38.128c27.029 0 49.021 21.992 49.021 49.021s-21.992 49.021-49.021 49.021h-38.128v163.404h38.128c27.029 0 49.021 21.992 49.021 49.021s-21.992 49.021-49.021 49.021h-38.128v38.128h653.617v-958.638h-653.617v38.128zM866.043 1.362c9.026 0 16.34 7.314 16.34 16.34v860.596c0 9.026-7.314 16.34-16.34 16.34s-16.34-7.314-16.34-16.34v-860.596c0-9.026 7.314-16.34 16.34-16.34zM947.745 17.702v860.596c0 9.026-7.314 16.34-16.34 16.34s-16.34-7.314-16.34-16.34v-860.596c0-9.026 7.314-16.34 16.34-16.34s16.34 7.314 16.34 16.34z" />
<glyph unicode="&#xe90f;" glyph-name="location" d="M512 960c-210.558 0-381.855-171.367-381.855-382.007 0-313.84 343.847-620.279 358.49-633.173 6.675-5.879 15.019-8.823 23.366-8.823s16.691 2.941 23.369 8.823c14.636 12.891 358.486 319.329 358.486 633.173 0 210.641-171.298 382.007-381.855 382.007zM512 19.82c-76.021 73.666-311.141 320.746-311.141 558.173 0 171.646 139.578 311.293 311.141 311.293s311.141-139.647 311.141-311.293c0-237.423-235.12-484.504-311.141-558.173zM512 755.948c-97.48 0-176.783-79.831-176.783-177.955 0-98.128 79.303-177.955 176.783-177.955s176.783 79.827 176.783 177.955c0 98.125-79.303 177.955-176.783 177.955zM512 470.752c-58.489 0-106.072 48.107-106.072 107.241 0 59.13 47.583 107.241 106.072 107.241s106.072-48.107 106.072-107.241c0-59.133-47.583-107.241-106.072-107.241z" />
<glyph unicode="&#xe910;" glyph-name="planet" d="M512-43.52c-271.040 0-491.52 220.48-491.52 491.52s220.48 491.52 491.52 491.52 491.52-220.48 491.52-491.52-220.48-491.52-491.52-491.52zM432.448-13.728c25.888-4.448 52.448-6.752 79.552-6.752 118.176 0 226.304 43.968 308.8 116.48h-0.32v119.008l-119.264 29.824c-2.784 0.704-5.216 2.4-6.816 4.8l-64 96c-1.696 2.528-2.304 5.632-1.696 8.64l32 160c1.056 5.376 5.792 9.248 11.296 9.248h192c1.792 0 3.552-0.416 5.152-1.216l110.976-55.68c-2.752 69.536-20.704 135.264-50.656 193.888h-58.336l-28.8-57.632c-1.984-3.936-5.952-6.4-10.336-6.4h-128c-6.368 0-11.52 5.152-11.52 11.52v128c0 4.96 3.2 9.344 7.872 10.912l93.44 31.136 24.32 24.32c-82.176 71.072-189.216 114.112-306.112 114.112-101.408 0-195.424-32.416-272.192-87.392l54.368-81.568h82.688l28.832 57.632c1.952 3.904 5.952 6.368 10.304 6.368h64c3.648 0 7.072-1.728 9.248-4.64s2.816-6.688 1.792-10.176l-95.52-318.368v-62.336c0-6.368-5.152-11.52-11.52-11.52h-32c-4.352 0-8.352 2.464-10.304 6.368l-28.832 57.632h-84.832l-67.456-53.952 101.856-116.384 220.736-63.104c5.984-1.696 9.504-7.84 8-13.856l-58.72-234.912zM143.424 159.136c65.664-83.584 159.168-144.448 266.368-168.384l56.32 225.216-213.312 60.96c-2.112 0.608-4.032 1.824-5.504 3.456l-112 128c-2.048 2.368-3.072 5.472-2.784 8.608 0.256 3.136 1.824 6.016 4.256 8l80 64c2.080 1.632 4.608 2.528 7.232 2.528h96c4.352 0 8.352-2.464 10.304-6.368l28.832-57.632h13.344v52.48c0 1.12 0.16 2.24 0.48 3.328l91.552 305.184h-41.376l-28.832-57.632c-1.952-3.936-5.952-6.4-10.304-6.4h-96c-3.872 0-7.456 1.92-9.568 5.12l-57.088 85.6c-108.256-85.888-177.824-218.592-177.824-367.2 0-9.696 0.288-19.328 0.896-28.896l156.448-187.744c3.84-4.576 3.52-11.328-0.704-15.52l-56.736-56.704zM711.136 266.080l123.648-30.912c5.152-1.28 8.736-5.92 8.736-11.2v-106.688c82.976 83.2 134.944 197.312 136.896 323.36l-119.168 59.808h-179.84l-29.216-146.080 58.944-88.288zM48.736 377.92c11.104-73.696 39.424-141.824 80.736-200.128l46.912 46.944-127.648 153.184zM715.52 619.52h109.344l28.8 57.632c1.984 3.904 5.952 6.368 10.336 6.368h52.864c-22.304 38.208-49.888 72.992-81.728 103.36l-27.008-27.008c-1.28-1.28-2.816-2.208-4.512-2.784l-88.096-29.376v-108.192z" />
<glyph unicode="&#xe911;" glyph-name="check" d="M994.006 645.616l-540.203-540.165c-40.003-40.010-104.893-40.010-144.934 0l-278.857 278.877c-40.018 40.010-40.018 104.909 0 144.926 40.025 40.025 104.911 40.025 144.919 0.015l206.426-206.429 467.707 467.71c40.025 40.025 104.916 39.995 144.926 0 40.010-40.018 40.010-104.893 0.015-144.934z" />
<glyph unicode="&#xe912;" glyph-name="search" d="M1011.094 9.345l-293.801 294.010c57.921 69.463 92.757 158.233 92.757 255.187 0 221.19-181.527 401.038-404.815 401.038s-405.235-180.058-405.235-401.248 181.527-401.038 404.815-401.038c94.856 0 182.156 32.528 251.409 86.881l294.85-294.85c17.208-17.208 42.811-17.208 60.019 0s17.208 42.811 0 60.019zM86.042 558.333c0 173.762 143.123 314.996 318.774 314.996s318.774-141.234 318.774-314.996-143.123-314.996-318.774-314.996-318.774 141.444-318.774 314.996z" />
<glyph unicode="&#xe913;" glyph-name="sms" d="M238.933-22.679c-5.018 0-10.069 1.126-14.814 3.379-11.776 5.697-19.32 17.613-19.32 30.752v170.668h-102.4c-56.457 0-102.4 45.94-102.4 102.4v546.132c0 56.457 45.943 102.4 102.4 102.4h819.2c56.455 0 102.4-45.943 102.4-102.4v-546.132c0-56.46-45.945-102.4-102.4-102.4h-414.686l-246.647-197.325c-6.178-4.953-13.722-7.475-21.334-7.475zM102.4 864.786c-18.842 0-34.133-15.326-34.133-34.133v-546.132c0-18.809 15.292-34.137 34.133-34.137h136.533c18.876 0 34.134-15.258 34.134-34.132v-133.804l200.533 160.461c6.076 4.851 13.551 7.475 21.333 7.475h426.667c18.842 0 34.132 15.328 34.132 34.137v546.132c0 18.808-15.29 34.133-34.132 34.133h-819.2zM785.068 591.733h-546.136c-18.876 0-34.133 15.292-34.133 34.133s15.258 34.133 34.133 34.133h546.136c18.874 0 34.132-15.292 34.132-34.133s-15.258-34.133-34.132-34.133zM511.999 455.207h-273.067c-18.876 0-34.133 15.292-34.133 34.134s15.258 34.133 34.133 34.133h273.067c18.876 0 34.132-15.292 34.132-34.133s-15.257-34.134-34.132-34.134z" />
<glyph unicode="&#xe914;" glyph-name="star" d="M507.116 929.882l149.039-301.983 333.258-48.426-241.146-235.061 56.922-331.914-298.073 156.708-298.076-156.708 56.927 331.914-241.148 235.061 333.258 48.426 149.038 301.983z" />
<glyph unicode="&#xe915;" glyph-name="User" d="M286.932 734.935c0-124.103 100.962-225.065 225.068-225.065s225.068 100.962 225.068 225.065-100.962 225.065-225.068 225.065-225.068-100.962-225.068-225.065zM153.331-64h717.338c29.712 0 53.8 24.088 53.8 53.8 0 227.436-185.034 412.469-412.469 412.469s-412.469-185.034-412.469-412.469c0-29.712 24.088-53.8 53.8-53.8z" />
<glyph unicode="&#xe916;" glyph-name="viber" d="M858.807 863.031c-24.656 22.67-124.483 95.251-346.998 96.245 0 0-262.288 15.908-390.151-101.416-71.19-71.189-96.245-175.19-98.83-304.445-2.585-129.057-5.966-371.059 227.29-436.684h0.199l-0.199-100.023c0 0-1.392-40.564 25.255-48.72 32.214-9.942 51.304 20.881 82.127 54.089 16.903 18.294 40.168 44.94 57.866 65.425 159.483-13.325 282.171 17.297 296.093 21.874 32.216 10.538 214.564 33.805 244.193 275.808 30.622 248.966-14.915 406.657-96.844 477.846zM885.853 402.686c-25.057-202.035-172.807-214.764-200.050-223.512-11.531-3.78-119.309-30.622-254.929-21.673 0 0-101.018-121.901-132.436-153.515-4.972-4.973-10.738-6.963-14.517-5.966-5.369 1.389-6.96 7.756-6.761 17.101 0 13.521 0.795 166.44 0.795 166.44-0.199 0-0.199 0 0 0-197.461 54.686-185.928 260.697-183.741 368.476s22.471 196.268 82.723 255.726c107.978 97.836 330.894 83.32 330.894 83.32 188.113-0.796 278.194-57.469 299.075-76.36 69.4-59.656 104.795-201.836 78.946-410.035zM603.483 546.277c-6.563 0-12.132 5.17-12.528 11.931-2.19 42.753-22.274 63.633-63.239 65.82-6.959 0.398-12.328 6.363-11.927 13.323 0.396 6.96 6.362 12.329 13.321 11.931 54.089-2.983 84.315-34.004 87.098-89.683 0.396-6.96-4.969-12.925-11.932-13.124-0.396-0.199-0.597-0.199-0.792-0.199zM667.906 524.755h-0.196c-6.963 0.199-12.528 5.965-12.328 12.926 0.993 42.952-11.335 77.752-37.585 106.386-26.050 28.635-62.041 44.146-109.568 47.526-6.959 0.597-12.132 6.562-11.536 13.522s6.563 12.13 13.526 11.533c53.689-3.977 96.042-22.669 126.268-55.679 30.426-33.208 45.141-74.769 44.148-123.886-0.2-6.96-5.966-12.329-12.729-12.329zM733.928 498.937c-6.959 0-12.528 5.57-12.528 12.528-0.597 76.956-22.67 135.618-67.611 179.565-44.344 43.35-100.619 65.423-166.836 66.020-6.959 0-12.528 5.767-12.528 12.727s5.766 12.528 12.528 12.528c72.98-0.597 135.021-25.055 184.137-73.178 49.317-48.123 74.569-114.54 75.366-197.264 0.2-7.159-5.369-12.925-12.528-12.925 0.2 0 0.2 0 0 0zM530.699 390.531c0 0 17.697-1.589 27.243 10.142l18.494 23.267c8.949 11.536 30.622 18.891 51.703 7.159 11.731-6.563 33.008-19.688 46.133-29.429 14.118-10.342 42.754-34.206 42.95-34.402 13.722-11.536 16.905-28.436 7.56-46.534 0 0 0-0.196 0-0.396-9.545-16.905-22.47-32.813-38.578-47.527-0.2 0-0.2-0.2-0.401-0.2-13.321-11.135-26.446-17.497-39.175-18.891-1.589-0.396-3.379-0.396-5.766-0.396-5.565 0-11.135 0.797-16.705 2.587l-0.396 0.597c-19.883 5.565-52.896 19.487-107.778 49.909-35.795 19.688-65.423 39.771-90.677 59.855-13.323 10.543-26.845 22.274-40.765 36.192-0.398 0.401-0.994 0.997-1.392 1.394s-0.994 0.993-1.392 1.394c-0.398 0.396-0.994 0.993-1.392 1.389-0.398 0.401-0.994 0.997-1.392 1.394-13.721 13.917-25.652 27.443-36.191 40.764-20.084 25.057-40.168 54.886-59.855 90.678-30.424 55.083-44.344 88.092-49.912 107.779l-0.597 0.398c-1.79 5.568-2.585 11.136-2.585 16.704 0 2.386 0 4.176 0.398 5.766 1.591 12.926 7.954 25.851 18.891 39.174 0 0.199 0.199 0.199 0.199 0.398 14.715 16.306 30.624 29.033 47.526 38.578 0 0 0.199 0 0.398 0 17.897 9.346 34.799 6.164 46.531-7.556 0 0 24.061-28.834 34.402-42.952 9.744-13.323 22.868-34.402 29.43-46.134 11.732-21.078 4.375-42.753-7.159-51.702l-23.266-18.493c-11.732-9.545-10.141-27.243-10.141-27.243s34.402-130.846 163.656-163.659z" />
<glyph unicode="&#xe917;" glyph-name="vk" d="M1000.505 713.599c7.123 23.978 0 41.601-33.878 41.601h-112.030c-28.484 0-41.607-15.223-48.73-32.013 0 0-56.971-140.285-137.679-231.411-26.112-26.379-37.978-34.762-52.22-34.762-7.123 0-17.428 8.383-17.428 32.361v224.224c0 28.78-8.266 41.601-32.006 41.601h-176.043c-17.796 0-28.503-13.355-28.503-26.015 0-27.284 40.346-33.574 44.506-110.309v-166.672c0-36.54-6.529-43.17-20.773-43.17-37.977 0-130.35 140.924-185.147 302.164-10.738 31.343-21.509 44.003-50.14 44.003h-112.026c-32.007 0-38.409-15.223-38.409-32.013 0-29.976 37.985-178.661 176.841-375.301 92.582-134.279 222.996-207.085 341.68-207.085 71.217 0 80.019 16.167 80.019 44.020v101.495c0 32.338 6.746 38.789 29.286 38.789 16.63 0 45.105-8.393 111.579-73.138 75.952-76.726 88.47-111.165 131.199-111.165h112.026c32.006 0 48.009 16.167 38.777 48.079-10.101 31.801-46.363 77.93-94.487 132.628-26.112 31.18-65.278 64.754-77.14 81.536-16.617 21.585-11.874 31.173 0 50.348 0 0 136.483 194.247 150.725 260.198v0.008z" />
<glyph unicode="&#xe918;" glyph-name="whatsApp" d="M876.12 810.551c-94.866 96.865-226.007 149.449-359.936 149.449-284.598 0-513.394-229.708-510.603-509.23 0-88.566 25.112-174.358 66.965-251.85l-72.545-262.919 270.649 69.188c75.335-41.511 159.041-60.884 242.746-60.884 281.81 0 510.605 229.708 510.605 509.23 0 135.611-53.014 262.919-147.88 357.017zM516.184 30.096c-75.334 0-150.669 19.373-214.843 58.119l-16.741 8.304-161.831-41.516 41.853 157.755-11.161 16.603c-122.768 196.496-64.175 456.649 136.719 578.422 200.892 121.773 460.383 63.654 583.151-135.611s64.176-456.65-136.719-578.423c-64.176-41.511-142.302-63.654-220.428-63.654zM761.724 337.296l-30.696 13.839c0 0-44.642 19.373-72.543 33.212-2.789 0-5.583 2.77-8.372 2.77-8.368 0-13.951-2.77-19.529-5.539 0 0-2.789-2.765-41.852-47.045-2.794-5.534-8.372-8.304-13.951-8.304h-2.794c-2.789 0-8.368 2.77-11.157 5.534l-13.951 5.534c-30.696 13.839-58.597 30.447-80.917 52.585-5.58 5.534-13.951 11.069-19.532 16.603-19.531 19.373-39.063 41.516-53.013 66.424l-2.79 5.535c-2.79 2.768-2.79 5.535-5.58 11.070 0 5.535 0 11.070 2.79 13.838 0 0 11.161 13.838 19.531 22.141 5.581 5.535 8.371 13.838 13.951 19.373 5.58 8.303 8.37 19.373 5.58 27.675-2.79 13.838-36.273 88.562-44.643 105.168-5.58 8.303-11.161 11.070-19.532 13.838h-8.37c-5.58 0-13.951 0-22.322 0-5.58 0-11.161-2.767-16.741-2.767l-2.79-2.768c-5.58-2.768-11.161-8.303-16.741-11.070-5.581-5.535-8.371-11.070-13.951-16.605-19.531-24.908-30.692-55.351-30.692-85.795 0-22.14 5.581-44.281 13.951-63.654l2.79-8.303c25.111-52.584 58.594-99.634 103.237-141.145l11.161-11.069c8.37-8.304 16.741-13.839 22.321-22.143 58.594-49.815 125.557-85.797 200.894-105.17 8.372-2.765 19.529-2.765 27.902-5.534 8.372 0 19.529 0 27.902 0 13.951 0 30.691 5.534 41.852 11.074 8.372 5.534 13.951 5.534 19.534 11.069l5.578 5.534c5.578 5.534 11.162 8.304 16.74 13.839 5.583 5.534 11.162 11.069 13.951 16.603 5.583 11.074 8.372 24.908 11.162 38.746 0 5.534 0 13.839 0 19.373 0 0-2.789 2.77-8.368 5.534z" />
</font>
</defs>
</svg>
