<svg width="18" height="18" viewBox="0 0 18 18" fill="none" xmlns="http://www.w3.org/2000/svg">
<path d="M1.48125 0.999939H16.5165C16.6521 0.999939 16.7848 1.03933 16.8984 1.11333C17.0121 1.18732 17.1018 1.29273 17.1566 1.41675C17.2115 1.54077 17.2292 1.67805 17.2075 1.81192C17.1858 1.94578 17.1257 2.07047 17.0344 2.17081L11.2809 8.49969C11.1638 8.62854 11.0989 8.79643 11.0989 8.97056V13.9253C11.0989 14.0406 11.0704 14.154 11.016 14.2556C10.9617 14.3572 10.883 14.4438 10.7872 14.5077L7.98716 16.3744C7.88173 16.4447 7.75922 16.485 7.63266 16.4912C7.50611 16.4973 7.38027 16.4689 7.26856 16.4091C7.15686 16.3494 7.06347 16.2604 6.99836 16.1517C6.93325 16.043 6.89886 15.9187 6.89887 15.792V8.97056C6.89887 8.79643 6.83396 8.62854 6.71682 8.49969L0.963292 2.17081C0.87207 2.07047 0.811959 1.94578 0.790265 1.81192C0.768571 1.67805 0.786228 1.54077 0.841091 1.41675C0.895953 1.29273 0.985657 1.18732 1.0993 1.11333C1.21295 1.03933 1.34564 0.999939 1.48125 0.999939V0.999939Z" stroke="#01CD7D" stroke-width="1.5" stroke-linecap="round" stroke-linejoin="round"/>
</svg>
